<?xml version="1.0" standalone="no"?>
<!DOCTYPE svg PUBLIC "-//W3C//DTD SVG 20010904//EN"
 "http://www.w3.org/TR/2001/REC-SVG-20010904/DTD/svg10.dtd">
<svg version="1.0" xmlns="http://www.w3.org/2000/svg"
 width="1280.000000pt" height="720.000000pt" viewBox="0 0 1280.000000 720.000000"
 preserveAspectRatio="xMidYMid meet">
<metadata>
Created by potrace 1.16, written by Peter Selinger 2001-2019
</metadata>
<g transform="translate(0.000000,720.000000) scale(0.100000,-0.100000)"
fill="#000000" stroke="none">
<path d="M2560 4829 c-582 -66 -1033 -376 -1146 -790 -28 -100 -25 -275 4
-362 28 -79 93 -171 148 -209 166 -114 448 -131 624 -37 122 65 198 181 203
311 2 71 -13 88 -78 88 -58 0 -71 -19 -78 -112 -10 -137 -73 -234 -185 -286
-45 -20 -71 -25 -136 -25 -95 0 -151 20 -216 79 -81 74 -120 184 -120 344 0
239 89 433 279 612 144 135 327 232 551 290 101 27 137 31 293 35 268 8 421
-24 559 -116 156 -105 225 -251 216 -456 -9 -176 -75 -314 -214 -444 -85 -80
-183 -134 -290 -161 -133 -34 -128 -41 -83 108 87 292 169 485 263 625 58 85
43 100 -38 39 -214 -162 -352 -377 -602 -940 -131 -294 -226 -481 -303 -598
-124 -188 -277 -318 -436 -371 -70 -24 -96 -27 -211 -28 -130 0 -131 0 -200
35 -49 25 -79 49 -105 84 -50 66 -65 121 -61 236 3 113 -1 126 -39 146 -38 19
-90 10 -121 -23 -21 -23 -23 -33 -23 -131 0 -97 3 -112 28 -163 77 -158 256
-239 525 -239 344 0 607 113 848 362 169 176 299 404 393 691 18 51 28 68 44
71 12 3 51 10 87 16 94 17 275 74 363 114 391 178 551 510 399 824 -33 69
-144 183 -226 231 -213 126 -586 187 -916 150z"/>
<path d="M11192 4188 c-10 -24 -58 -136 -108 -250 l-89 -208 -275 0 -275 0
-43 -98 c-23 -54 -42 -101 -42 -105 0 -4 122 -7 271 -7 213 0 270 -3 266 -12
-3 -7 -50 -118 -106 -246 -56 -128 -101 -235 -101 -238 0 -2 57 -3 126 -2
l125 3 107 248 107 247 275 0 276 0 37 88 c20 48 39 95 43 105 6 16 -11 17
-266 17 -214 0 -271 3 -267 13 3 6 50 117 106 245 56 129 101 236 101 238 0 2
-56 4 -125 4 l-124 0 -19 -42z"/>
<path d="M9940 4013 c-11 -27 -44 -101 -72 -165 l-52 -118 -56 0 c-54 0 -57
-1 -73 -35 l-17 -35 55 0 c30 0 55 -3 55 -6 0 -13 -125 -285 -177 -386 -126
-243 -318 -426 -331 -314 -4 35 0 45 119 297 153 323 167 386 100 453 -30 30
-35 31 -114 31 -72 0 -88 -4 -136 -30 -30 -17 -76 -50 -103 -73 -26 -24 -48
-41 -48 -38 0 4 11 33 25 66 14 33 25 62 25 65 0 3 -48 5 -108 5 l-107 0 -59
-137 c-106 -245 -164 -362 -231 -464 -104 -159 -199 -238 -231 -194 -8 10 -9
26 -4 43 9 32 88 218 221 521 55 123 99 226 99 227 0 2 -53 4 -117 4 l-118 0
-104 -241 c-58 -133 -128 -280 -155 -327 -95 -159 -218 -268 -262 -231 -31 26
-28 33 224 582 l101 217 -118 0 -117 0 -33 -69 c-58 -124 -124 -181 -209 -181
-53 0 -70 16 -87 85 -36 138 -142 198 -307 175 -210 -30 -375 -200 -482 -499
-44 -122 -170 -284 -242 -311 -17 -7 -32 -6 -46 1 -33 18 -30 27 140 394 83
180 102 235 102 292 0 75 -25 105 -106 127 -30 9 -122 -11 -179 -39 -27 -13
-78 -47 -112 -75 l-63 -50 0 46 c0 54 -22 100 -52 110 -85 28 -219 -18 -313
-107 -30 -29 -55 -50 -55 -47 0 3 13 37 29 77 l30 71 -107 0 -107 0 -64 -148
c-161 -368 -243 -515 -336 -600 -58 -54 -93 -69 -114 -47 -24 23 -6 73 150
428 78 175 138 325 135 333 -10 26 -58 36 -187 42 -111 4 -136 2 -200 -18 -99
-29 -188 -78 -278 -149 -115 -91 -191 -122 -191 -77 0 9 16 44 35 78 43 79 54
138 30 158 -46 39 -149 0 -251 -93 -67 -62 -67 -62 -25 36 12 27 21 51 21 53
0 2 -46 4 -103 4 l-103 0 -93 -212 c-140 -318 -204 -432 -300 -531 -70 -74
-119 -92 -135 -51 -9 25 27 120 168 437 75 169 136 313 136 318 0 42 -261 65
-379 34 -122 -32 -263 -117 -357 -216 -66 -71 -146 -191 -195 -292 -123 -259
-80 -432 107 -430 83 1 156 36 235 113 l59 58 0 -47 c0 -89 63 -141 151 -125
56 11 147 64 205 121 30 29 54 51 54 48 0 -3 -13 -35 -30 -72 -16 -36 -30 -70
-30 -75 0 -5 50 -7 111 -6 l111 3 122 275 c67 151 137 302 156 335 38 67 116
155 136 155 19 0 18 -9 -7 -64 -24 -55 -19 -100 14 -118 35 -18 104 -12 158
15 27 13 49 23 49 22 0 -1 -20 -33 -46 -71 -98 -149 -139 -263 -139 -386 0
-72 3 -91 21 -115 34 -45 79 -66 144 -66 80 0 153 37 239 122 l69 68 4 -63 c3
-50 9 -69 28 -89 72 -76 206 -43 319 80 28 31 51 54 51 51 0 -4 -13 -36 -30
-73 -16 -36 -30 -70 -30 -74 0 -5 51 -9 113 -9 l113 0 118 268 c159 359 233
476 340 533 55 29 82 19 79 -27 -1 -16 -75 -195 -163 -397 -88 -203 -160 -371
-160 -373 0 -2 53 -4 118 -4 l117 0 104 238 c152 346 194 424 271 503 49 50
75 69 102 74 20 4 42 4 49 0 26 -17 -2 -97 -118 -345 -124 -264 -150 -337
-139 -395 14 -71 96 -108 195 -87 88 19 168 81 279 217 l32 40 0 -40 c2 -160
133 -251 322 -225 181 26 340 166 438 386 36 78 70 195 70 236 0 26 2 28 28
21 35 -10 118 -6 143 7 25 14 25 11 -15 -68 -80 -160 -157 -342 -166 -395 -22
-115 19 -178 120 -185 85 -6 167 35 268 134 l74 73 -2 -42 c-5 -88 -1 -108 29
-138 26 -25 37 -29 87 -29 77 0 133 28 217 110 37 36 67 63 67 59 0 -3 -13
-36 -30 -72 -16 -37 -30 -69 -30 -72 0 -3 52 -4 116 -3 l116 3 117 265 c133
298 199 417 271 489 67 67 138 87 154 44 10 -25 -9 -72 -111 -285 -126 -265
-145 -318 -147 -400 -1 -57 2 -70 23 -92 78 -83 239 -36 381 110 40 41 74 74
76 74 2 0 -1 -12 -7 -27 -6 -16 -12 -64 -13 -108 -1 -71 2 -85 26 -126 37 -63
81 -84 179 -84 65 0 85 5 145 34 73 36 187 142 251 233 31 44 32 46 14 62 -18
16 -21 14 -69 -47 -100 -125 -186 -187 -260 -187 -86 0 -106 86 -54 235 16 44
86 212 157 373 l129 292 78 0 c76 0 78 1 93 30 8 16 15 31 15 35 0 3 -34 5
-75 5 -41 0 -75 2 -75 4 0 2 32 75 70 162 39 87 70 159 70 161 0 2 -52 3 -115
3 l-114 0 -21 -47z m-6035 -375 c-59 -141 -192 -423 -231 -489 -51 -88 -141
-192 -185 -215 -37 -19 -74 -18 -95 3 -72 73 146 518 321 653 58 45 134 79
177 80 27 0 27 0 13 -32z m1480 0 c-54 -128 -188 -416 -218 -469 -109 -196
-234 -294 -292 -229 -70 77 145 515 320 650 58 45 134 79 177 80 27 0 27 0 13
-32z m2149 13 c12 -13 18 -36 18 -68 -2 -172 -183 -583 -305 -690 -62 -55
-126 -52 -148 5 -41 108 148 563 298 716 57 59 106 72 137 37z"/>
</g>
</svg>
