<svg xmlns="http://www.w3.org/2000/svg" viewBox="0 0 512 512"><g fill="none" fill-rule="evenodd"><path fill="#000" d="M0 0h512v512H0z"/><g fill="#FFF"><path d="M279.727 219.705c-1.944 2.732-3.598 3.518-5.115 3.518-1.978 0-2.558-1.708-2.32-4.082.427-4.27 3.922-14.106 8.816-20.92 2.216-3.109 3.751-4.39 5.422-4.39 1.67 0 2.216 1.4 2.148 3.177-.153 4.628-4.228 15.934-9.02 22.697m-86.052 1.058c-1.245 0-2.08-.41-2.115-2.032 0-4.27 3.564-11.767 7.963-17.778 3.069-4.167 7.093-7.241 11.372-7.241l-5.37 12.21c-4.11 9.36-8.372 14.841-11.782 14.841m-53.521 0c-1.228 0-2.063-.41-2.097-2.032 0-4.27 3.563-11.767 7.98-17.778 3.051-4.167 7.075-7.258 11.372-7.258l-5.473 12.21c-4.041 9.223-8.526 14.841-11.782 14.841m244.229-41.328h-8.525l-1.978 4.491-3.41 7.617h-4.041l-1.194 2.579h4.126l-4.961 11.1c-3.564 7.822-9.19 15.524-12.413 15.524-.682 0-1.108-.324-1.108-1.041a8.84 8.84 0 011.023-3.416c1.023-2.391 2.66-5.79 3.887-8.3 1.705-3.62 4.638-9.307 4.638-12.142a4.82 4.82 0 00-1.505-3.738 4.803 4.803 0 00-3.815-1.283c-3.955 0-7.502 2.408-10.793 5.84l2.132-5.123h-8.116l-6.599 15.012c-2.625 5.345-8.03 14.174-11.372 14.174-.7 0-.99-.427-.99-1.127.06-.63.222-1.248.478-1.827l4.246-9.871 7.144-16.412h-8.696l-6.94 15.968c-2.182 4.952-7.604 13.303-11.082 13.303-.716 0-1.176-.358-1.176-1.246.194-1.253.58-2.468 1.142-3.604l3.632-8.01 7.519-16.411h-8.696l-1.705 3.706c-1.262 2.476-3.41 5.448-6.82 5.448a2.982 2.982 0 01-2.813-1.298c-.512-5.534-3.973-8.54-9.156-8.54-7.179 0-12.294 4.27-15.636 9.41a45.173 45.173 0 00-5.115 11.443c-3.069 5.123-6.308 9.017-8.832 9.017-.648 0-1.057-.393-1.057-1.23.2-1.226.591-2.413 1.16-3.518l5.626-11.954c1.569-3.723 2.66-6.182 2.66-8.54a4.358 4.358 0 00-1.37-3.295 4.344 4.344 0 00-3.37-1.162 17.041 17.041 0 00-12.02 6.148c.123-.624.18-1.259.17-1.895a3.88 3.88 0 00-1.115-3.277 3.867 3.867 0 00-3.284-1.078c-3.734 0-7.57 2.203-11.083 6.268l2.336-5.62h-7.894l-6.65 15.012c-3.171 7.088-8.235 14.175-11.116 14.175-.682 0-1.058-.341-1.058-1.212.421-2.11 1.12-4.155 2.08-6.08l8.781-20.05c.665-1.485-3.563-2.425-8.934-2.425a25.315 25.315 0 00-15.345 6.217c-2.916 2.408-5.115 3.637-6.19 3.637-.545 0-.784-.29-.784-.649 0-1.23 2.933-4.68 2.933-7.292 0-1.178-.648-1.981-2.285-1.981-3.154 0-6.82 3.04-9.616 6.182l2.336-5.55h-7.724l-6.616 15.028c-3.188 7.122-8.388 14.5-11.27 14.5-.665 0-1.057-.342-1.057-1.213a23.935 23.935 0 012.234-6.387l8.78-20.05c.665-1.485-3.563-2.425-8.934-2.425-7.928 0-15.652 5.38-19.795 10.862-4.519 6.011-7.588 12.381-7.656 17.505 0 4.133 2.08 6.746 6.394 6.746 4.791 0 8.627-3.826 10.93-6.695-.13.563-.22 1.133-.274 1.708 0 2.869 1.143 4.952 4.621 4.952 3.086 0 7.195-2.578 10.503-6.694l-2.677 6.097h8.389l8.235-18.7c2.677-6.097 5.797-9.257 6.633-9.257.273 0 .392.12.392.359 0 .649-1.262 2.357-1.262 3.945 0 1.588.887 2.766 3.137 2.766a11.446 11.446 0 005.593-1.98c-4.211 5.755-7.059 11.783-7.059 16.753 0 4.133 2.08 6.746 6.394 6.746s8.73-4.287 11.015-7.139a13.838 13.838 0 00-.171 1.981 4.684 4.684 0 001.252 3.658 4.668 4.668 0 003.573 1.465c3.547 0 6.462-2.237 10.026-6.592l-2.626 5.995h8.525l7.843-17.88c3.41-7.788 8.082-11.955 10.384-11.955a1.04 1.04 0 011.142 1.16 7.61 7.61 0 01-.699 2.545l-11.509 26.061h8.798l8.048-18.205c3.41-7.787 7.264-11.647 10.111-11.647.853 0 1.228.444 1.228 1.4a7.438 7.438 0 01-.836 2.853l-7.707 16.531a13.372 13.372 0 00-1.261 5.004c0 2.493 1.364 4.73 5.115 4.73 4.996 0 8.832-3.774 13.129-9.478v1.213c.306 4.542 2.864 8.453 9.497 8.453 7.877 0 14.237-5.482 18.124-14.14a31.633 31.633 0 002.796-9.7 6.079 6.079 0 002.814.597 8.037 8.037 0 003.7-.905l-1.364 2.989c-1.57 3.296-3.41 6.985-4.638 10.042a16.895 16.895 0 00-1.535 5.806 4.803 4.803 0 001.413 3.904 4.786 4.786 0 003.924 1.339c3.512 0 8.338-3.313 11.73-7.958h.103a18.66 18.66 0 00-.392 2.937c0 2.545.784 5.004 4.382 5.004 4.143 0 7.348-3.023 10.503-6.831l-2.66 6.062h8.696l6.922-15.763c3.922-8.897 7.894-14.243 11.56-14.243.784 0 1.177.513 1.177 1.298 0 1.486-2.115 5.568-4.11 9.7-1.79 3.74-3.137 6.593-4.075 8.83a17.853 17.853 0 00-1.517 5.943 4.462 4.462 0 001.268 3.606 4.446 4.446 0 003.591 1.295c4.996 0 10.111-4.833 12.805-8.539a17.599 17.599 0 00-1.006 5.465c0 5.021 3.035 7.549 7.247 7.549a13.507 13.507 0 007.809-2.647 36.235 36.235 0 008.167-8.915l-1.484-1.434a33.745 33.745 0 01-6.683 7.497 7.665 7.665 0 01-4.45 1.708c-1.706 0-2.933-.923-2.933-3.262a29.445 29.445 0 012.694-9.496l4.672-10.537c1.892-4.286 3.717-8.539 4.075-9.29h5.643l1.143-2.579h-5.627l5.337-12.125zM118.192 200.167a60.222 60.222 0 009.565-1.98c11.305-3.16 24.092-10.743 24.092-24.217 0-15.524-16.3-22.97-35.908-22.97-20.818 0-39.932 9.273-47.007 23.602a27.6 27.6 0 00-2.916 12.347 18.45 18.45 0 002.916 10.486c3 4.474 8.354 7.292 16.266 7.292 9.65 0 17.34-5.328 17.34-14.584a2.53 2.53 0 00-.807-1.937 2.52 2.52 0 00-1.99-.66c-2.455 0-3.103 1.709-3.034 2.597.34 7.275-3.922 13.047-11.595 13.047-8.525 0-12.157-7.31-12.157-15.148 0-16.019 12.038-26.642 24.553-31.184a49.034 49.034 0 0118.26-3.194c14.153 0 25.747 5.465 25.747 20.067 0 12.228-10.23 22.628-22.507 23.499l.478-1.708c2.523-8.949 5.558-18.786 10.571-26.044.434-.644.9-1.265 1.398-1.861l-.699-.871a36.368 36.368 0 00-3.12 2.203c-23.513 18.376-24.229 70.02-55.516 70.02a18.726 18.726 0 01-3.188-.257c-5.9-.516-10.308-5.659-9.924-11.578 0-1.196.41-2.853.41-3.809a3.179 3.179 0 00-.993-2.369 3.168 3.168 0 00-2.418-.859c-2.813-.017-4.006 2.17-4.006 5.38-.154 9.205 6.581 14.516 16.93 15.473 1.126.102 2.302.153 3.513.153 24.416 0 39.42-18.478 45.746-40.987M389.838 212.48l7.076-15.199h23.87l11.117-23.909h15.345l-11.116 23.91H460l-7.161 15.199h-23.87l-11.186 24.011h-15.345l11.253-24.011z" fill-rule="nonzero"/><path d="M108.269 339.062v.29c.042.292.187.559.409.752A69.354 69.354 0 00157.305 360c13.436 0 28.986-4.526 39.796-13.048a1.562 1.562 0 00-1.569-2.698 91.197 91.197 0 01-37.101 8.146 92.949 92.949 0 01-48.645-13.833 1.294 1.294 0 00-.699-.222.802.802 0 00-.818.717"/><path d="M188.269 340.395a1.435 1.435 0 00-.614.905v.17c0 .325.341.547.887.479 3.41-.444 11.185-1.435 12.566.46 1.38 1.896-1.535 9.633-2.83 13.1-.393 1.041.443 1.468 1.33.666 5.78-5.124 7.263-15.951 6.086-17.522-.562-.735-3.222-1.435-6.496-1.435a18.529 18.529 0 00-10.93 3.177M223.887 314.06c-2.273 0-3.57 1.384-3.887 4.15 1.028.194 2.073.286 3.12.273a4.58 4.58 0 002.574-.546 1.828 1.828 0 00.802-1.708c0-1.486-.87-2.22-2.609-2.22m-.494 7.6a13.62 13.62 0 01-3.41-.393 4.803 4.803 0 001.415 3.416 5.535 5.535 0 003.648 1.024 13.772 13.772 0 001.91-.136c.87-.123 1.73-.306 2.575-.547h.374c.41 0 .598.273.598.82v1.605a1.54 1.54 0 01-.154.803 1.16 1.16 0 01-.614.393 14.761 14.761 0 01-5.422.99 8.926 8.926 0 01-6.666-2.39 9.42 9.42 0 01-2.32-6.832 10.257 10.257 0 012.388-7.173 8.518 8.518 0 016.496-2.68 7.562 7.562 0 015.115 1.587 5.298 5.298 0 011.824 4.219 4.494 4.494 0 01-1.96 3.979 10.37 10.37 0 01-5.832 1.366m19.404 4.065c2.506 0 3.75-1.913 3.75-5.704 0-3.792-1.244-5.67-3.75-5.67-2.507 0-3.751 1.895-3.751 5.67 0 3.774 1.295 5.704 3.785 5.704h-.034zm0 4.013a8.62 8.62 0 01-6.633-2.562 11.799 11.799 0 010-14.277 9.894 9.894 0 0113.282 0 11.799 11.799 0 010 14.277 8.62 8.62 0 01-6.615 2.562h-.034zm-40.358-4.082a6.08 6.08 0 003.29-1.007v-9.479a6.93 6.93 0 00-3.546-.888 3.136 3.136 0 00-2.813 1.418 7.798 7.798 0 00-.904 4.372 7.404 7.404 0 00.989 4.27 3.408 3.408 0 003.018 1.314h-.034zm-1.705 3.945a6.812 6.812 0 01-4.041-1.212 7.684 7.684 0 01-2.626-3.416 12.673 12.673 0 01-.887-4.901 11.165 11.165 0 012.08-7.07 6.816 6.816 0 015.576-2.665 7.733 7.733 0 014.893 1.606v-8.386a.735.735 0 01.887-.888h3.41c.249-.031.5.036.699.188.156.198.23.45.205.7v24.746a.992.992 0 01-.205.683.954.954 0 01-.699.205h-2.83a.886.886 0 01-1.006-.785l-.222-.82a7.564 7.564 0 01-5.217 2.015h-.017zm-13.59-21.484a3.134 3.134 0 01-2.114-.82 2.975 2.975 0 010-4.098 3.542 3.542 0 014.365 0 2.975 2.975 0 010 4.098 3.134 3.134 0 01-2.25.82zm-1.705 21.143a.75.75 0 01-.886-.888v-16.6a.957.957 0 01.204-.7.988.988 0 01.682-.205h3.41a.92.92 0 01.7.205.957.957 0 01.204.7v16.531a.992.992 0 01-.204.683.92.92 0 01-.7.205l-3.41.069zm-14.475 0a1.43 1.43 0 01-.58 0 .819.819 0 01-.392-.29 2.221 2.221 0 01-.307-.547l-6.104-15.968c0-.188-.137-.359-.188-.495a1.129 1.129 0 010-.393c0-.359.239-.547.716-.547h3.564a1.09 1.09 0 011.262.94l3.683 12.689 3.75-12.69c.049-.279.194-.533.41-.717.247-.162.54-.24.835-.222h3.41c.478 0 .716.188.716.547.023.13.023.263 0 .393l-.17.495-6.121 15.968a1.486 1.486 0 01-.307.546.784.784 0 01-.375.29 1.43 1.43 0 01-.597 0h-3.205zM62.59 311.755a.906.906 0 01.222-.7.937.937 0 01.682-.188h2.575a.921.921 0 011.006.785l.239.923a8.518 8.518 0 015.695-2.255 6.696 6.696 0 015.507 2.545 10.737 10.737 0 012.012 6.831 12.587 12.587 0 01-.99 5.123 8.349 8.349 0 01-2.727 3.416 6.676 6.676 0 01-3.939 1.195 8.513 8.513 0 01-2.796-.46 6.34 6.34 0 01-2.25-1.299v7.84a.923.923 0 01-.205.7.954.954 0 01-.7.204h-3.41a.937.937 0 01-.681-.205.855.855 0 01-.222-.7l-.017-23.755zm8.748 2.51c-1.235 0-2.448.33-3.513.957v9.427a6.505 6.505 0 003.513.956 3.408 3.408 0 002.95-1.35 7.644 7.644 0 00.954-4.303c.109-1.5-.217-3-.938-4.32a3.408 3.408 0 00-2.966-1.367zM88.985 313.582a10.626 10.626 0 012.694-2.237 5.79 5.79 0 012.71-.666h.495c.256-.026.513.047.716.205.172.19.252.445.222.7v3.006a.992.992 0 01-.205.683.92.92 0 01-.699.205h-1.637c-.676.017-1.35.097-2.012.239a9.656 9.656 0 00-1.994.58v11.955a.923.923 0 01-.205.666.886.886 0 01-.7.222h-3.41a.784.784 0 01-.886-.888v-16.497a.906.906 0 01.222-.7c.192-.14.428-.206.665-.188h2.592a.904.904 0 01.988.785l.444 1.93zM100.954 308.117a3.168 3.168 0 01-2.182-.751 2.958 2.958 0 010-4.082c1.29-1 3.091-1 4.382 0a2.958 2.958 0 010 4.082 3.185 3.185 0 01-2.2.751zm-2.609 3.723a.889.889 0 01.222-.7c.198-.142.44-.208.682-.188h3.41c.248-.026.497.04.7.188a.957.957 0 01.204.7v16.497a.94.94 0 01-.205.684.852.852 0 01-.699.222h-3.41a.784.784 0 01-.904-.906V311.84zM112.77 312.609a14.875 14.875 0 013.41-1.708 9.313 9.313 0 013.137-.53 4.806 4.806 0 014.536 2.289 15.182 15.182 0 013.41-1.708 10.436 10.436 0 013.325-.546 5.263 5.263 0 013.887 1.4 5.334 5.334 0 011.381 3.91v12.639a.923.923 0 01-.204.666.852.852 0 01-.7.222h-3.41a.886.886 0 01-.682-.222.855.855 0 01-.221-.666v-11.58c0-1.622-.716-2.441-2.183-2.441a8.906 8.906 0 00-3.904.939v12.996c.018.237-.049.473-.188.666a.903.903 0 01-.699.222h-3.461a.766.766 0 01-.887-.888v-11.493c0-1.623-.733-2.442-2.182-2.442a8.735 8.735 0 00-3.956.973v12.962c.018.237-.048.473-.187.666a.903.903 0 01-.7.222h-3.41a.766.766 0 01-.886-.888v-16.514a.957.957 0 01.204-.7.988.988 0 01.682-.188h2.592a.904.904 0 01.99.785l.306.957zM147.229 321.677a14.317 14.317 0 01-3.547-.393 4.786 4.786 0 001.45 3.416 5.637 5.637 0 003.734 1.042 14.725 14.725 0 001.96-.137 20.142 20.142 0 002.626-.546h.392c.41 0 .614.273.614.82v1.707c.027.279-.033.559-.17.803-.16.194-.374.336-.614.41a15.493 15.493 0 01-5.559.99 9.096 9.096 0 01-6.82-2.425 9.574 9.574 0 01-2.336-7.087c-.15-2.66.723-5.275 2.438-7.31a8.756 8.756 0 016.82-2.647 7.783 7.783 0 015.218 1.623 5.35 5.35 0 011.876 4.286 4.613 4.613 0 01-2.03 4.065 10.54 10.54 0 01-5.95 1.383m.494-7.736c-2.301 0-3.614 1.417-3.972 4.218 1.05.208 2.118.305 3.188.29a4.955 4.955 0 002.643-.546 1.93 1.93 0 00.835-1.708c0-1.503-.903-2.254-2.694-2.254"/><path d="M304.109 328.696a12.837 12.837 0 01-4.62.82 8.517 8.517 0 01-6.565-2.391 11.97 11.97 0 010-14.055 8.62 8.62 0 016.615-2.46c1.435-.009 2.86.234 4.212.718v2.186a18.727 18.727 0 00-3.905-.547 6.439 6.439 0 00-4.86 1.708 7.352 7.352 0 00-1.517 5.123v.632a7.472 7.472 0 001.484 5.124 6.115 6.115 0 004.74 1.708 18.847 18.847 0 004.33-.666l.086 2.1zM321.023 329.191v-8.265H311.9v8.265h-2.694v-18.307h2.694v7.873h9.122v-7.873h2.694v18.307zM341.858 329.191l-1.705-4.867h-7.519l-1.705 4.867h-2.711l6.82-18.307h2.899l6.82 18.307h-2.899zm-8.525-6.83h6.155l-3.171-9.12-2.984 9.12zM351.065 314.624v14.567h-2.489v-18.307h2.933l9.002 14.636v-14.636h2.473v18.307h-2.95zM371.424 314.624v14.567h-2.473v-18.307h2.916l9.002 14.636v-14.636h2.473v18.307h-2.95zM389.31 329.191v-18.307h11.372v2.169h-8.679v5.618h7.28v2.17h-7.28v6.181h8.679v2.17zM405.644 329.191v-18.307h2.71v16.019h8.628v2.22zM424.416 320.499a7.586 7.586 0 01-3.137-1.981 4.445 4.445 0 01-.972-2.938 4.736 4.736 0 01.733-2.63 5.117 5.117 0 012.131-1.81 7.44 7.44 0 013.257-.666c1.67.02 3.322.344 4.876.956v2.152a16.225 16.225 0 00-4.689-.82 4.325 4.325 0 00-2.66.7 2.341 2.341 0 00-.937 1.982c-.03.631.197 1.248.63 1.707.701.559 1.499.981 2.354 1.247l2.404.905a7.04 7.04 0 013.069 1.913c.65.817.984 1.842.938 2.886a4.99 4.99 0 01-1.808 4.048 7.323 7.323 0 01-4.86 1.502 12.123 12.123 0 01-5.285-1.075v-2.118c1.685.585 3.452.896 5.235.922a4.717 4.717 0 002.932-.82 2.632 2.632 0 001.075-2.22 2.205 2.205 0 00-.631-1.622 6.102 6.102 0 00-2.08-1.23l-2.575-.99zM269.923 300.415h2.694v38.801h-2.694z" fill-rule="nonzero"/></g></g></svg>